<svg xmlns="http://www.w3.org/2000/svg" viewBox="0 0 540 574" width="540" height="574">
	<style>
		tspan { white-space:pre }
		.shp0 { fill: #00ab9d } 
		.shp1 { fill: none;stroke: #231f20 } 
		.shp2 { fill: #c3a895 } 
		.shp3 { fill: #018577 } 
		.shp4 { fill: #008577 } 
		.shp5 { fill: #3cbeb0 } 
	</style>
	<g id="Layer_10">
	</g>
	<g id="Layer_14">
		<path id="Layer" fill-rule="evenodd" class="shp0" d="M507.48 10.42C506.24 17.15 505.63 20.5 504.93 23.5C504.46 25.52 503.96 27.53 503.43 29.54C502.89 31.54 502.33 33.53 501.74 35.52C501.14 37.51 500.52 39.48 499.86 41.45C499.2 43.42 498.52 45.37 497.8 47.32C494.67 55.78 492.68 61.15 489.29 67C478.8 85.07 463.51 92.82 464.55 94.37C465.59 95.92 480.55 87.53 481.31 87.11C496 78.79 503.52 71.82 504.22 72.58C505.17 73.61 493.51 88.87 476.84 103.87C469.73 110.24 461.44 116.82 462.84 119.51C464.03 121.79 471.37 119.78 471.78 121.19C472.46 123.43 454.08 128.62 454.46 133.48C454.84 138.34 473.38 139.42 473.46 143.54C473.52 147.29 458.27 148.6 457.81 153.6C457.29 159.25 475.94 164.28 475.13 168.13C474.43 171.48 460.07 168.76 457.81 174.27C456.19 178.21 461.19 185.18 466.19 188.8C469.54 191.24 472.5 191.9 472.34 192.71C471.95 194.73 453.84 191.57 452.78 194.95C451.83 197.99 465.52 203.71 464.52 207.24C463.58 210.41 451.83 207.56 449.43 212.24C446.88 217.2 457.23 226 455.02 229C452.81 232 441.93 225.49 438.81 229C435.48 232.76 444.62 243.97 441.61 246.89C438.6 249.81 426.96 240.05 423.17 243.53C421.1 245.44 422.06 250.66 422.61 253.59C423.51 258.41 425.18 259.76 424.28 261.41C422.73 264.28 415.36 264.72 411.99 261.41C411.95 261.37 411.92 261.34 411.88 261.3C411.85 261.27 411.81 261.23 411.78 261.19C411.74 261.15 411.71 261.12 411.68 261.08C411.64 261.04 411.61 261 411.58 260.96C412.02 262.64 412.41 264.33 412.74 266.03C413.08 267.73 413.36 269.44 413.58 271.16C413.8 272.88 413.96 274.6 414.07 276.33C414.18 278.06 414.23 279.8 414.23 281.53C414.12 288.9 412.78 289.82 411.43 301.64C409.89 315.11 411.4 315.9 410.31 325.11C408.24 342.7 402.65 340.63 396.9 364.23C395.1 371.65 393.59 380.33 387.4 383.23C385.99 383.89 384.25 382.78 381.82 383.78C379.2 384.87 378.66 386.62 376.2 388.87C372.54 392.21 370.34 391.46 368.41 393.28C364.2 397.26 369.71 405.9 371.2 420.1C371.32 421.23 373.75 445.66 367.85 447.48C364.85 448.41 361.47 442.95 359.47 444.13C357.16 445.45 361.4 452.45 358.91 461.45C357.8 465.44 354.97 471.25 351.08 471.51C350.69 471.5 350.29 471.46 349.9 471.39C349.52 471.32 349.13 471.22 348.76 471.09C348.39 470.95 348.03 470.79 347.69 470.6C347.34 470.41 347.01 470.19 346.7 469.95C343.77 467.87 343.06 464.69 342.7 464.81C342.09 465.03 346.82 473.35 343.82 478.81C341.57 482.95 337.23 481.18 330.97 486.63C326.23 490.76 325.15 494.85 323.15 494.45C320.39 493.91 320.07 486 319.23 486.07C318 486.17 318.94 503.67 317 503.95C315.48 504.17 313.41 493.7 311.41 493.89C308.85 494.15 310.6 512.37 305.26 514.01C301.17 515.3 295.97 505.85 292.97 507.3C290.9 508.3 292.69 513.09 291.3 520.16C289.79 527.75 284.98 536.1 281.24 535.8C276.51 535.42 276.27 521.46 270.62 520.71C265.96 520.1 263.16 529.2 258.33 528.54C253.02 527.81 251.97 516.24 247.71 516.24C244.16 516.24 242.73 524.27 239.89 524.07C235.69 523.76 235.06 505.96 230.95 505.63C227.72 505.37 225.21 516.1 222.57 515.69C219.46 515.2 220.34 500.04 216.98 499.48C214.54 499.08 212.01 506.66 210.27 506.19C207.83 505.52 210.5 489.86 208.6 489.42C207 489.05 204.13 499.83 201.33 499.48C199.83 499.29 199.05 496 198.39 493.18C196.65 485.82 198.62 483.84 196.86 480.48C194.56 476.09 190.43 478.05 186.25 473.22C182.5 468.81 184.98 466.23 181.25 459.81C177.62 453.63 174.54 454.77 171.19 448.63C169.12 444.81 168.69 441.41 167.84 434.63C167.69 433.61 167.57 432.59 167.47 431.57C167.37 430.55 167.3 429.52 167.25 428.5C167.21 427.47 167.18 426.45 167.19 425.42C167.19 424.39 167.22 423.37 167.28 422.34C167.64 416.43 171.82 401.05 172.08 400.34C172.06 400.46 171.96 400.89 171.75 401.68C172.08 401.28 172.37 400.84 172.62 400.37C172.86 399.9 173.05 399.41 173.19 398.91C173.32 398.4 173.41 397.88 173.43 397.36C173.46 396.83 173.43 396.31 173.35 395.79C173.28 395.47 173.19 395.15 173.07 394.84C172.95 394.52 172.81 394.22 172.65 393.93C172.49 393.64 172.31 393.36 172.11 393.1C171.91 392.83 171.69 392.58 171.45 392.35C169.67 390.59 168.45 391.28 165.6 389.94C165.6 389.94 160.92 387.74 157.11 381.24C155.44 378.37 155.38 376.58 155 376.58C154.12 376.5 154.29 386.4 151.92 387.11C146.35 388.78 124.18 340.54 128.18 318.47C128.38 317.51 128.56 316.54 128.71 315.56C128.86 314.59 128.98 313.61 129.07 312.63C129.17 311.65 129.23 310.67 129.27 309.68C129.31 308.7 129.32 307.71 129.3 306.73C129.12 298.24 126.95 296.24 125.95 287.73C125.08 280.13 125.95 274.05 126.83 267.85C128.17 258.29 130.63 250.55 129.83 250.29C129.27 250.1 128.39 253.94 124.62 256.94C122.25 258.81 117.9 260.93 115.9 259.49C112.18 256.79 120.15 244.01 116.42 240.79C112.51 237.41 100.14 248.38 96.86 245.26C93.58 242.14 104.06 228.27 100.77 225.14C97.74 222.26 85.88 231.26 84.01 229.05C81.98 226.61 95.06 214.88 92.39 210.61C89.72 206.34 72.75 213.07 71.72 210.61C70.69 208.15 87.46 200.71 86.25 195.53C85.25 191.12 72.08 192.04 71.14 187.71C70.2 183.38 82.03 179.28 81.2 174.85C80.29 170.05 65.6 170.58 64.99 166.47C64.32 161.9 81.68 157.66 81.2 152.47C80.74 147.5 64.36 146.28 64.43 142.97C64.51 139.18 86.11 137.83 86.23 134.03C86.35 130.23 65.28 127.21 65.55 123.42C65.7 121.32 72.37 121.59 73.37 118.42C74.7 114.23 64.62 109.09 54.93 99.98C40.75 86.64 33.67 70.7 34.82 69.8C35.33 69.38 37.45 71.96 46.55 79.86C53.02 85.48 56.33 88.33 59.96 90.48C67.46 94.91 76.91 97.72 77.84 96.07C79.02 93.95 64.75 87.3 51.02 69.24C49.96 67.92 48.94 66.57 47.96 65.18C46.98 63.8 46.05 62.38 45.16 60.93C44.28 59.49 43.43 58.02 42.64 56.52C41.85 55.02 41.11 53.5 40.41 51.95C36.82 43.75 37.28 40.68 32.02 15.63C30.06 6.26 29 1.92 29.79 1.63C31.25 1.12 35.32 15.15 47.11 30.69C48.4 32.36 49.73 34.01 51.09 35.62C52.46 37.22 53.87 38.8 55.31 40.34C56.76 41.88 58.24 43.38 59.76 44.85C61.28 46.31 62.84 47.74 64.43 49.13C72.77 56.56 75.66 57.38 87.34 67.57C93.72 73.14 97.48 76.94 97.96 76.51C98.83 75.73 84.8 64.92 78.4 45.78C75.95 38.45 76.7 36.04 71.7 18.96C70.28 14.11 68.89 9.7 69.46 9.46C70.58 8.98 75.58 25.69 89.58 40.75C90.95 42.2 92.36 43.6 93.82 44.96C95.27 46.32 96.77 47.62 98.31 48.89C99.85 50.15 101.44 51.36 103.05 52.51C104.67 53.67 106.33 54.78 108.02 55.83C118.53 62.61 120.47 61.18 134.97 70.02C140.45 73.38 146.89 75.38 151.47 79.83C153.06 81.36 155.82 84.31 159.47 84.19C159.94 84.15 160.41 84.08 160.86 83.97C161.32 83.86 161.77 83.71 162.2 83.52C162.63 83.34 163.05 83.12 163.45 82.86C163.84 82.61 164.22 82.33 164.57 82.01C165.13 81.56 172.21 78.56 186.38 72.56C197.47 67.86 207.56 66.24 218.01 64.56C227.18 63.08 234.91 62.73 250.37 62.01C262.98 61.43 269.44 61.13 278.73 61.65C287.68 62.15 294.12 63.12 304.68 64.72C313.7 66.09 322.55 67.44 334.29 70.31C349.28 73.98 356.9 75.45 361.67 78.69C362.22 79.07 362.78 79.44 363.34 79.8C363.91 80.16 364.48 80.51 365.06 80.84C365.64 81.17 366.23 81.5 366.82 81.8C367.41 82.11 368.01 82.41 368.62 82.69C371.94 84.22 373.93 85.15 376.17 85.33C381.12 85.75 383.45 82.24 390.25 78.58C396.08 75.47 397.25 76.47 404.17 73.72C411.27 70.88 415.65 67.49 423.17 61.98C425.09 60.58 426.98 59.13 428.83 57.63C430.68 56.14 432.49 54.6 434.26 53.01C436.03 51.43 437.77 49.8 439.46 48.12C441.15 46.45 442.8 44.74 444.4 42.98C457.59 28.32 463.01 15.38 464.91 16.25C465.46 16.5 465.46 17.71 463.46 28.25C461.84 36.66 460.9 41.47 460.05 44.66C455.2 62.74 440 76.07 441.05 77.07C442.51 78.45 464.38 58.27 481.84 38.51C488.97 30.44 493.23 25.57 498.04 17.84C503.82 8.52 507.51 0.07 508.66 0.52C509.05 0.67 509.03 1.81 507.48 10.42ZM345.91 349.94C345.91 327.13 311.45 308.65 268.91 308.65C226.37 308.65 191.91 327.14 191.91 349.94C191.91 372.74 226.4 391.23 268.91 391.23C311.42 391.23 345.91 372.75 345.91 349.94Z" />
		<path id="Layer" fill-rule="evenodd" class="shp0" d="M314.99 349.94C314.99 372.73 294.84 391.2 269.99 391.2C245.14 391.2 224.99 372.73 224.99 349.94C224.99 327.15 245.14 308.67 269.99 308.67C294.84 308.67 314.99 327.15 314.99 349.94ZM304.37 349.92C304.37 332.5 288.98 318.38 269.99 318.38C251 318.38 235.6 332.52 235.6 349.94C235.6 367.36 250.99 381.48 269.99 381.48C288.98 381.48 304.37 367.34 304.37 349.92Z" />
		<path id="Layer" fill-rule="evenodd" class="shp1" d="M507.48 10.42C506.24 17.15 505.63 20.5 504.93 23.5C504.46 25.52 503.96 27.53 503.43 29.54C502.89 31.54 502.33 33.53 501.74 35.52C501.14 37.51 500.52 39.48 499.86 41.45C499.2 43.42 498.52 45.37 497.8 47.32C494.67 55.78 492.68 61.15 489.29 67C478.8 85.07 463.51 92.82 464.55 94.37C465.59 95.92 480.55 87.53 481.31 87.11C496 78.79 503.52 71.82 504.22 72.58C505.17 73.61 493.51 88.87 476.84 103.87C469.73 110.24 461.44 116.82 462.84 119.51C464.03 121.79 471.37 119.78 471.78 121.19C472.46 123.43 454.08 128.62 454.46 133.48C454.84 138.34 473.38 139.42 473.46 143.54C473.52 147.29 458.27 148.6 457.81 153.6C457.29 159.25 475.94 164.28 475.13 168.13C474.43 171.48 460.07 168.76 457.81 174.27C456.19 178.21 461.19 185.18 466.19 188.8C469.54 191.24 472.5 191.9 472.34 192.71C471.95 194.73 453.84 191.57 452.78 194.95C451.83 197.99 465.52 203.71 464.52 207.24C463.58 210.41 451.83 207.56 449.43 212.24C446.88 217.2 457.23 226 455.02 229C452.81 232 441.93 225.49 438.81 229C435.48 232.76 444.62 243.97 441.61 246.89C438.6 249.81 426.96 240.05 423.17 243.53C421.1 245.44 422.06 250.66 422.61 253.59C423.51 258.41 425.18 259.76 424.28 261.41C422.73 264.28 415.36 264.72 411.99 261.41C411.95 261.37 411.92 261.34 411.88 261.3C411.85 261.27 411.81 261.23 411.78 261.19C411.74 261.15 411.71 261.12 411.68 261.08C411.64 261.04 411.61 261 411.58 260.96C412.02 262.64 412.41 264.33 412.74 266.03C413.08 267.73 413.36 269.44 413.58 271.16C413.8 272.88 413.96 274.6 414.07 276.33C414.18 278.06 414.23 279.8 414.23 281.53C414.12 288.9 412.78 289.82 411.43 301.64C409.89 315.11 411.4 315.9 410.31 325.11C408.24 342.7 402.65 340.63 396.9 364.23C395.1 371.65 393.59 380.33 387.4 383.23C385.99 383.89 384.25 382.78 381.82 383.78C379.2 384.87 378.66 386.62 376.2 388.87C372.54 392.21 370.34 391.46 368.41 393.28C364.2 397.26 369.71 405.9 371.2 420.1C371.32 421.23 373.75 445.66 367.85 447.48C364.85 448.41 361.47 442.95 359.47 444.13C357.16 445.45 361.4 452.45 358.91 461.45C357.8 465.44 354.97 471.25 351.08 471.51C350.69 471.5 350.29 471.46 349.9 471.39C349.52 471.32 349.13 471.22 348.76 471.09C348.39 470.95 348.03 470.79 347.69 470.6C347.34 470.41 347.01 470.19 346.7 469.95C343.77 467.87 343.06 464.69 342.7 464.81C342.09 465.03 346.82 473.35 343.82 478.81C341.57 482.95 337.23 481.18 330.97 486.63C326.23 490.76 325.15 494.85 323.15 494.45C320.39 493.91 320.07 486 319.23 486.07C318 486.17 318.94 503.67 317 503.95C315.48 504.17 313.41 493.7 311.41 493.89C308.85 494.15 310.6 512.37 305.26 514.01C301.17 515.3 295.97 505.85 292.97 507.3C290.9 508.3 292.69 513.09 291.3 520.16C289.79 527.75 284.98 536.1 281.24 535.8C276.51 535.42 276.27 521.46 270.62 520.71C265.96 520.1 263.16 529.2 258.33 528.54C253.02 527.81 251.97 516.24 247.71 516.24C244.16 516.24 242.73 524.27 239.89 524.07C235.69 523.76 235.06 505.96 230.95 505.63C227.72 505.37 225.21 516.1 222.57 515.69C219.46 515.2 220.34 500.04 216.98 499.48C214.54 499.08 212.01 506.66 210.27 506.19C207.83 505.52 210.5 489.86 208.6 489.42C207 489.05 204.13 499.83 201.33 499.48C199.83 499.29 199.05 496 198.39 493.18C196.65 485.82 198.62 483.84 196.86 480.48C194.56 476.09 190.43 478.05 186.25 473.22C182.5 468.81 184.98 466.23 181.25 459.81C177.62 453.63 174.54 454.77 171.19 448.63C169.12 444.81 168.69 441.41 167.84 434.63C167.69 433.61 167.57 432.59 167.47 431.57C167.37 430.55 167.3 429.52 167.25 428.5C167.21 427.47 167.18 426.45 167.19 425.42C167.19 424.39 167.22 423.37 167.28 422.34C167.64 416.43 171.82 401.05 172.08 400.34C172.06 400.46 171.96 400.89 171.75 401.68C172.08 401.28 172.37 400.84 172.62 400.37C172.86 399.9 173.05 399.41 173.19 398.91C173.32 398.4 173.41 397.88 173.43 397.36C173.46 396.83 173.43 396.31 173.35 395.79C173.28 395.47 173.19 395.15 173.07 394.84C172.95 394.52 172.81 394.22 172.65 393.93C172.49 393.64 172.31 393.36 172.11 393.1C171.91 392.83 171.69 392.58 171.45 392.35C169.67 390.59 168.45 391.28 165.6 389.94C165.6 389.94 160.92 387.74 157.11 381.24C155.44 378.37 155.38 376.58 155 376.58C154.12 376.5 154.29 386.4 151.92 387.11C146.35 388.78 124.18 340.54 128.18 318.47C128.38 317.51 128.56 316.54 128.71 315.56C128.86 314.59 128.98 313.61 129.07 312.63C129.17 311.65 129.23 310.67 129.27 309.68C129.31 308.7 129.32 307.71 129.3 306.73C129.12 298.24 126.95 296.24 125.95 287.73C125.08 280.13 125.95 274.05 126.83 267.85C128.17 258.29 130.63 250.55 129.83 250.29C129.27 250.1 128.39 253.94 124.62 256.94C122.25 258.81 117.9 260.93 115.9 259.49C112.18 256.79 120.15 244.01 116.42 240.79C112.51 237.41 100.14 248.38 96.86 245.26C93.58 242.14 104.06 228.27 100.77 225.14C97.74 222.26 85.88 231.26 84.01 229.05C81.98 226.61 95.06 214.88 92.39 210.61C89.72 206.34 72.75 213.07 71.72 210.61C70.69 208.15 87.46 200.71 86.25 195.53C85.25 191.12 72.08 192.04 71.14 187.71C70.2 183.38 82.03 179.28 81.2 174.85C80.29 170.05 65.6 170.58 64.99 166.47C64.32 161.9 81.68 157.66 81.2 152.47C80.74 147.5 64.36 146.28 64.43 142.97C64.51 139.18 86.11 137.83 86.23 134.03C86.35 130.23 65.28 127.21 65.55 123.42C65.7 121.32 72.37 121.59 73.37 118.42C74.7 114.23 64.62 109.09 54.93 99.98C40.75 86.64 33.67 70.7 34.82 69.8C35.33 69.38 37.45 71.96 46.55 79.86C53.02 85.48 56.33 88.33 59.96 90.48C67.46 94.91 76.91 97.72 77.84 96.07C79.02 93.95 64.75 87.3 51.02 69.24C49.96 67.92 48.94 66.57 47.96 65.18C46.98 63.8 46.05 62.38 45.16 60.93C44.28 59.49 43.43 58.02 42.64 56.52C41.85 55.02 41.11 53.5 40.41 51.95C36.82 43.75 37.28 40.68 32.02 15.63C30.06 6.26 29 1.92 29.79 1.63C31.25 1.12 35.32 15.15 47.11 30.69C48.4 32.36 49.73 34.01 51.09 35.62C52.46 37.22 53.87 38.8 55.31 40.34C56.76 41.88 58.24 43.38 59.76 44.85C61.28 46.31 62.84 47.74 64.43 49.13C72.77 56.56 75.66 57.38 87.34 67.57C93.72 73.14 97.48 76.94 97.96 76.51C98.83 75.73 84.8 64.92 78.4 45.78C75.95 38.45 76.7 36.04 71.7 18.96C70.28 14.11 68.89 9.7 69.46 9.46C70.58 8.98 75.58 25.69 89.58 40.75C90.95 42.2 92.36 43.6 93.82 44.96C95.27 46.32 96.77 47.62 98.31 48.89C99.85 50.15 101.44 51.36 103.05 52.51C104.67 53.67 106.33 54.78 108.02 55.83C118.53 62.61 120.47 61.18 134.97 70.02C140.45 73.38 146.89 75.38 151.47 79.83C153.06 81.36 155.82 84.31 159.47 84.19C159.94 84.15 160.41 84.08 160.86 83.97C161.32 83.86 161.77 83.71 162.2 83.52C162.63 83.34 163.05 83.12 163.45 82.86C163.84 82.61 164.22 82.33 164.57 82.01C165.13 81.56 172.21 78.56 186.38 72.56C197.47 67.86 207.56 66.24 218.01 64.56C227.18 63.08 234.91 62.73 250.37 62.01C262.98 61.43 269.44 61.13 278.73 61.65C287.68 62.15 294.12 63.12 304.68 64.72C313.7 66.09 322.55 67.44 334.29 70.31C349.28 73.98 356.9 75.45 361.67 78.69C362.22 79.07 362.78 79.44 363.34 79.8C363.91 80.16 364.48 80.51 365.06 80.84C365.64 81.17 366.23 81.5 366.82 81.8C367.41 82.11 368.01 82.41 368.62 82.69C371.94 84.22 373.93 85.15 376.17 85.33C381.12 85.75 383.45 82.24 390.25 78.58C396.08 75.47 397.25 76.47 404.17 73.72C411.27 70.88 415.65 67.49 423.17 61.98C425.09 60.58 426.98 59.13 428.83 57.63C430.68 56.14 432.49 54.6 434.26 53.01C436.03 51.43 437.77 49.8 439.46 48.12C441.15 46.45 442.8 44.74 444.4 42.98C457.59 28.32 463.01 15.38 464.91 16.25C465.46 16.5 465.46 17.71 463.46 28.25C461.84 36.66 460.9 41.47 460.05 44.66C455.2 62.74 440 76.07 441.05 77.07C442.51 78.45 464.38 58.27 481.84 38.51C488.97 30.44 493.23 25.57 498.04 17.84C503.82 8.52 507.51 0.07 508.66 0.52C509.05 0.67 509.03 1.81 507.48 10.42ZM345.91 349.94C345.91 327.13 311.45 308.65 268.91 308.65C226.37 308.65 191.91 327.14 191.91 349.94C191.91 372.74 226.4 391.23 268.91 391.23C311.42 391.23 345.91 372.75 345.91 349.94Z" />
		<path id="Layer" class="shp0" d="M257.05 408.5C205.85 408.5 164.47 381.21 164.47 347.44C164.47 313.67 205.85 286.38 257.05 286.38C308.25 286.38 349.63 313.67 349.63 347.44C349.63 381.21 308.25 408.5 257.05 408.5Z" />
	</g>
	<g id="features">
		<path id="Layer" class="shp2" d="M198.86 234.76C173.98 234.76 153.87 216.31 153.87 193.49C153.87 170.67 173.98 152.22 198.86 152.22C223.74 152.22 243.85 170.67 243.85 193.49C243.85 216.31 223.74 234.76 198.86 234.76Z" />
		<path id="Layer" class="shp2" d="M339.76 234.76C314.88 234.76 294.77 216.31 294.77 193.49C294.77 170.67 314.88 152.22 339.76 152.22C364.64 152.22 384.75 170.67 384.75 193.49C384.75 216.31 364.64 234.76 339.76 234.76Z" />
		<path id="Layer" class="shp2" d="M269.86 226.38L265.47 220.92C265 220.51 264.49 220.16 263.95 219.86C263.41 219.56 262.83 219.33 262.24 219.16C261.64 218.98 261.03 218.88 260.41 218.84C259.79 218.8 259.17 218.83 258.56 218.92C256.56 219.3 255.28 220.52 253.75 222.04C253.24 222.55 252.75 223.09 252.29 223.65C251.84 224.22 251.42 224.81 251.03 225.42C250.64 226.03 250.28 226.66 249.96 227.31C249.64 227.96 249.36 228.63 249.11 229.31C248.87 229.95 248.66 230.6 248.48 231.26C248.3 231.91 248.14 232.58 248.01 233.25C247.88 233.92 247.78 234.59 247.71 235.27C247.63 235.95 247.59 236.63 247.57 237.31C247.57 237.97 247.58 238.64 247.62 239.3C247.66 239.96 247.71 240.63 247.79 241.29C247.86 241.95 247.96 242.6 248.07 243.26C248.18 243.91 248.32 244.56 248.47 245.21C248.94 247.66 249.47 249.68 249.88 251.12C250.09 251.85 250.31 252.58 250.55 253.31C250.79 254.03 251.05 254.75 251.33 255.46C251.61 256.17 251.9 256.87 252.21 257.57C252.52 258.26 252.85 258.95 253.2 259.63C253.52 260.24 253.85 260.84 254.19 261.44C254.53 262.04 254.88 262.63 255.24 263.21C255.6 263.79 255.97 264.37 256.36 264.94C256.74 265.51 257.14 266.07 257.54 266.63C259.37 269.31 261.22 271.72 263.03 273.9L271.52 283.1C274.85 278.61 278.19 274.12 281.52 269.64C282.22 268.63 282.88 267.6 283.5 266.55C284.12 265.49 284.71 264.42 285.26 263.32C285.81 262.23 286.32 261.12 286.79 259.99C287.27 258.86 287.7 257.71 288.09 256.55C288.52 255.29 288.89 254.02 289.22 252.73C289.55 251.45 289.82 250.15 290.05 248.84C290.27 247.53 290.45 246.22 290.57 244.89C290.7 243.57 290.77 242.25 290.79 240.92C290.89 239.95 290.95 238.98 290.97 238.01C290.98 237.04 290.95 236.07 290.88 235.1C290.81 234.13 290.69 233.17 290.53 232.21C290.37 231.25 290.17 230.3 289.92 229.36C289.74 228.9 289.54 228.44 289.32 227.99C289.1 227.54 288.86 227.11 288.6 226.68C288.34 226.25 288.07 225.83 287.78 225.43C287.49 225.02 287.18 224.63 286.86 224.25C285.3 222.43 283.09 219.79 279.59 219.47C279.08 219.43 278.58 219.43 278.07 219.47C277.57 219.52 277.06 219.6 276.57 219.72C276.08 219.85 275.6 220.01 275.13 220.21C274.67 220.41 274.22 220.65 273.79 220.92L269.86 226.38Z" />
	</g>
	<g id="Layer_9">
		<path id="Layer" class="shp3" d="M198.86 225.03C179.84 225.03 164.47 210.93 164.47 193.49C164.47 176.05 179.84 161.95 198.86 161.95C217.88 161.95 233.25 176.05 233.25 193.49C233.25 210.93 217.88 225.03 198.86 225.03Z" />
		<path id="Layer" class="shp3" d="M339.86 225.03C320.84 225.03 305.47 210.93 305.47 193.49C305.47 176.05 320.84 161.95 339.86 161.95C358.88 161.95 374.25 176.05 374.25 193.49C374.25 210.93 358.88 225.03 339.86 225.03Z" />
	</g>
	<g id="Layer_8">
		<path id="Layer" class="shp4" d="M345.18 134.1C350.1 138.4 331.06 175.78 317.43 173.9C316.54 173.73 315.67 173.43 314.86 173.03C314.05 172.62 313.3 172.1 312.63 171.48C311.96 170.87 311.37 170.16 310.9 169.39C310.42 168.61 310.06 167.78 309.81 166.9C306.16 152.91 340.3 129.83 345.18 134.1Z" />
		<path id="Layer" class="shp4" d="M192.82 134.1C187.9 138.4 206.94 175.78 220.57 173.9C221.46 173.73 222.33 173.43 223.14 173.03C223.95 172.62 224.7 172.1 225.37 171.48C226.04 170.87 226.63 170.16 227.1 169.39C227.58 168.61 227.94 167.78 228.19 166.9C231.84 152.91 197.7 129.83 192.82 134.1Z" />
	</g>
	<g id="lower_feat">
		<path id="Layer" class="shp5" d="M298.43 205.97C299.55 206.7 305.38 196.57 321.24 182.82C322.66 181.58 324.1 180.37 325.56 179.18C327.02 178 328.5 176.83 330 175.7C331.5 174.56 333.02 173.46 334.56 172.37C336.1 171.29 337.66 170.24 339.24 169.21C340.95 168.12 342.69 167.05 344.44 166.02C346.19 164.99 347.96 163.99 349.75 163.03C351.54 162.06 353.35 161.13 355.17 160.23C357 159.33 358.83 158.46 360.69 157.63C377.07 150.18 380.4 151.42 395.41 144.7C397.47 143.82 399.5 142.88 401.51 141.9C403.52 140.92 405.51 139.88 407.47 138.8C409.43 137.72 411.37 136.6 413.27 135.42C415.18 134.25 417.05 133.03 418.9 131.76C431.62 122.92 429.73 120.61 447.84 105.21C457.39 97.08 462.51 93.83 473.03 83.76C474.17 82.67 484.82 72.48 484.26 71.85C484.17 71.75 483.83 71.91 483.61 72.02C479.94 73.92 460.86 87.84 461.79 88.87C462.72 89.9 485.52 77.29 486.65 61.29C486.93 57.29 485.65 55.67 486.65 50.4C487.77 44.52 490.52 40.4 495.84 32.7C501.26 24.82 502.84 24.15 504.69 19.42C507.23 12.99 507.53 6.14 506.39 5.8C504.94 5.37 502.28 15.8 494.48 27.59C490.79 33.14 487.76 36.29 476.48 47.33C456.11 67.2 445.82 77.21 440.4 80.7C430.49 87.08 431.47 84.29 412.48 94.99C395.83 104.39 395.67 106.2 383.89 111.99C367.39 120.14 363.73 118.55 353.89 125.26C345.77 130.82 340.95 136.93 333.8 147.05C315.34 173.24 296.44 204.68 298.43 205.97Z" />
		<path id="Layer" class="shp5" d="M241.25 202.91C240.13 203.75 235.25 197.13 217.89 182.82C216.46 181.6 215.01 180.4 213.54 179.22C212.07 178.05 210.59 176.89 209.09 175.75C207.59 174.62 206.07 173.51 204.54 172.42C203 171.32 201.45 170.26 199.89 169.21C198.18 168.12 196.44 167.05 194.69 166.02C192.94 164.99 191.17 163.99 189.38 163.03C187.59 162.06 185.78 161.13 183.96 160.23C182.13 159.33 180.3 158.46 178.44 157.63C162.06 150.18 158.74 151.42 143.72 144.7C141.67 143.82 139.63 142.88 137.62 141.9C135.61 140.91 133.63 139.88 131.67 138.8C129.71 137.72 127.78 136.59 125.87 135.42C123.97 134.25 122.09 133.03 120.25 131.76C107.54 122.92 109.43 120.61 91.31 105.21C81.76 97.08 76.64 93.83 66.12 83.76C64.93 82.67 54.25 72.48 54.84 71.85C54.93 71.75 55.27 71.91 55.49 72.02C59.16 73.92 78.25 87.84 77.31 88.87C76.37 89.9 53.58 77.29 52.46 61.29C52.17 57.29 53.46 55.67 52.46 50.4C51.34 44.52 48.58 40.4 43.26 32.7C37.85 24.82 36.25 24.15 34.41 19.38C31.87 12.95 31.57 6.1 32.71 5.76C34.16 5.33 36.82 15.76 44.63 27.55C48.31 33.1 51.34 36.25 62.63 47.29C83 67.16 93.29 77.17 98.71 80.66C108.62 87.04 107.64 84.25 126.63 94.95C143.28 104.35 143.44 106.16 155.22 111.95C171.72 120.1 175.38 118.51 185.22 125.22C193.3 130.76 197.85 136.66 205.31 147.01C214.3 159.57 244.03 200.82 241.25 202.91Z" />
	</g>
	<g id="upper_feat">
		<path id="Layer" class="shp5" d="M308.02 164.64C308.8 165.15 312.84 158.12 323.83 148.64C324.81 147.78 325.81 146.94 326.83 146.12C327.84 145.29 328.87 144.49 329.91 143.7C330.96 142.91 332.01 142.14 333.08 141.39C334.15 140.64 335.23 139.91 336.33 139.2C337.52 138.45 338.72 137.71 339.93 137C341.15 136.29 342.38 135.6 343.62 134.93C344.86 134.27 346.11 133.62 347.37 133C348.63 132.38 349.91 131.78 351.19 131.2C362.54 126.04 364.85 126.9 375.25 122.2C376.68 121.59 378.09 120.94 379.48 120.25C380.87 119.57 382.25 118.85 383.61 118.1C384.97 117.35 386.31 116.56 387.63 115.75C388.95 114.93 390.25 114.08 391.53 113.2C400.34 107.08 399.03 105.48 411.58 94.8C418.21 89.17 421.75 86.92 429.04 79.94C429.83 79.19 437.21 72.12 436.82 71.69C436.76 71.62 436.53 71.69 436.37 71.81C433.83 73.12 420.6 82.81 421.26 83.48C421.92 84.15 437.7 75.48 438.48 64.37C438.67 61.57 437.78 60.47 438.48 56.82C439.25 52.75 441.16 49.91 444.85 44.56C448.54 39.21 449.69 38.63 450.98 35.36C452.74 30.9 452.98 26.15 452.16 25.92C451.16 25.62 449.31 32.86 443.9 41.02C441.35 44.86 439.25 47.02 431.4 54.7C417.25 68.48 410.15 75.38 406.39 77.83C399.53 82.25 400.21 80.32 387.05 87.74C375.51 94.24 375.4 95.5 367.23 99.53C355.8 105.18 353.23 104.08 346.47 108.73C340.85 112.59 337.47 116.82 332.55 123.83C319.74 141.96 306.64 163.74 308.02 164.64Z" />
		<path id="Layer" class="shp5" d="M230.38 164.64C229.6 165.15 225.56 158.12 214.57 148.64C213.59 147.78 212.59 146.94 211.57 146.12C210.56 145.29 209.53 144.49 208.49 143.7C207.44 142.91 206.39 142.14 205.32 141.39C204.25 140.64 203.17 139.91 202.07 139.2C200.88 138.45 199.68 137.71 198.46 137C197.25 136.29 196.02 135.6 194.78 134.93C193.54 134.27 192.29 133.62 191.03 133C189.77 132.38 188.49 131.78 187.21 131.2C175.85 126.04 173.55 126.9 163.14 122.2C161.72 121.58 160.31 120.93 158.91 120.25C157.52 119.57 156.14 118.85 154.79 118.1C153.43 117.35 152.09 116.56 150.77 115.75C149.45 114.93 148.15 114.08 146.87 113.2C138.05 107.08 139.36 105.48 126.81 94.8C120.19 89.17 116.65 86.92 109.36 79.94C108.57 79.19 101.19 72.12 101.57 71.69C101.63 71.62 101.87 71.69 102.03 71.81C104.56 73.12 117.79 82.81 117.14 83.48C116.49 84.15 100.7 75.48 99.92 64.37C99.72 61.57 100.62 60.47 99.92 56.82C99.14 52.75 97.23 49.91 93.55 44.56C89.87 39.21 88.71 38.63 87.42 35.36C85.66 30.9 85.42 26.15 86.24 25.92C87.24 25.62 89.09 32.86 94.49 41.02C97.04 44.86 99.15 47.02 107 54.7C121.11 68.48 128.25 75.38 132 77.83C138.87 82.25 138.19 80.32 151.35 87.74C162.89 94.24 163 95.5 171.16 99.53C182.6 105.18 185.16 104.08 191.92 108.73C197.55 112.59 200.92 116.82 205.84 123.83C218.66 141.96 231.75 163.74 230.38 164.64Z" />
	</g>
	<g id="thingy">
		<path id="Layer" class="shp5" d="M248.91 164.38C250.34 163.59 247.49 156.48 248.75 155.91C249.36 155.63 250.35 157.19 253.17 159.66C255.99 162.13 258.06 163.92 259.64 163.4C260.64 163.06 261.49 161.98 263.05 159.66C264.88 156.92 265.23 155.5 265.75 155.57C267.02 155.73 266.28 164.46 267.81 164.76C269.34 165.06 272.08 155.56 274.26 155.91C275.5 156.11 275.26 159.28 278.37 162.72C279.56 164.04 280.26 164.81 281.23 164.83C284.47 164.89 285.99 156.4 288.23 156.59C290.47 156.78 290.98 165.47 292.65 165.44C293.51 165.44 293.65 163.23 295.04 160.68C297.04 156.92 301.38 152.51 305.25 152.85C308.8 153.16 310.91 157.37 314.1 163.74C317.96 171.44 319.89 175.29 319.21 179.4C318.35 184.58 314.94 185 304.57 198.12C301.42 202.12 301.88 201.89 299.12 205.27C291.05 215.18 287.01 220.14 282.68 219.89C276.68 219.55 275.54 209.97 269.8 209.96C264.06 209.95 261.87 219.56 256.89 218.89C254.14 218.52 253.77 215.47 247.38 208.68C245.76 206.96 244.26 205.6 241.25 202.89C224.86 188.1 220.17 188.13 218.78 182.46C216.88 174.71 223.78 166.89 230.36 159.31C232.36 156.99 233.86 155.76 235.8 155.57C241.95 154.99 247.14 165.38 248.91 164.38Z" />
	</g>
</svg>