<svg xmlns="http://www.w3.org/2000/svg" xmlns:xlink="http://www.w3.org/1999/xlink" viewBox="0 0 539.4 573.56"><defs><style>.cls-1{fill:url(#radial-gradient);stroke:url(#radial-gradient-2);}.cls-2{fill:#00ab9d;}.cls-3{fill:none;stroke:#231f20;}.cls-4{fill:#c3a895;}.cls-5{fill:#018577;}.cls-6{fill:#008577;}.cls-7{fill:#3cbeb0;}</style><radialGradient id="radial-gradient" cx="287.45" cy="350.36" r="251.47" gradientTransform="translate(-14.53 -65.2) rotate(0.46) scale(1 1.15)" gradientUnits="userSpaceOnUse"><stop offset="0" stop-color="#c49a6c"/><stop offset="1"/></radialGradient><radialGradient id="radial-gradient-2" cx="269.7" cy="339.99" r="252.28" gradientUnits="userSpaceOnUse"><stop offset="0" stop-color="#e1b870"/><stop offset="1"/></radialGradient></defs><title>booffer3</title><g id="Layer_10" data-name="Layer 10"><polygon class="cls-1" points="269.7 106.93 538.53 106.93 404.12 339.74 269.7 572.56 135.28 339.74 0.87 106.93 269.7 106.93"/></g><g id="Layer_14" data-name="Layer 14"><path class="cls-2" d="M526.41,11.14c-1.15-.45-4.84,8-10.62,17.32-4.81,7.73-9.07,12.6-16.2,20.67-17.46,19.76-39.33,39.94-40.79,38.56-1.05-1,14.15-14.33,19-32.41.85-3.19,1.79-8,3.41-16.41,2-10.54,2-11.75,1.45-12-1.9-.87-7.32,12.07-20.51,26.73a142.48,142.48,0,0,1-21.23,19c-7.52,5.51-11.9,8.9-19,11.74C415,87.09,413.83,86.09,408,89.2c-6.8,3.66-9.13,7.17-14.08,6.75-2.24-.18-4.23-1.11-7.55-2.64a46.31,46.31,0,0,1-6.95-4c-4.77-3.24-12.39-4.71-27.38-8.38-11.74-2.87-20.59-4.22-29.61-5.59-10.56-1.6-17-2.57-25.95-3.07-9.29-.52-15.75-.22-28.36.36-15.46.72-23.19,1.07-32.36,2.55-10.45,1.68-20.54,3.3-31.63,8-14.17,6-21.25,9-21.81,9.45a8.58,8.58,0,0,1-5.1,2.18c-3.65.12-6.41-2.83-8-4.36C164.64,86,158.2,84,152.72,80.64c-14.5-8.84-16.44-7.41-26.95-14.19a92.63,92.63,0,0,1-18.44-15.08c-14-15.06-19-31.77-20.12-31.29-.57.24.82,4.65,2.24,9.5,5,17.08,4.25,19.49,6.7,26.82,6.4,19.14,20.43,29.95,19.56,30.73-.48.43-4.24-3.37-10.62-8.94C93.41,68,90.52,67.18,82.18,59.75A128.37,128.37,0,0,1,64.86,41.31C53.07,25.77,49,11.74,47.54,12.25c-.79.29.27,4.63,2.23,14,5.26,25.05,4.8,28.12,8.39,36.32A79.57,79.57,0,0,0,68.77,79.86c13.73,18.06,28,24.71,26.82,26.83-.93,1.65-10.38-1.16-17.88-5.59-3.63-2.15-6.94-5-13.41-10.62C55.2,82.58,53.08,80,52.57,80.42c-1.15.9,5.93,16.84,20.11,30.18,9.69,9.11,19.77,14.25,18.44,18.44-1,3.17-7.67,2.9-7.82,5-.27,3.79,20.8,6.81,20.68,10.61s-21.72,5.15-21.8,8.94c-.07,3.31,16.31,4.53,16.77,9.5.48,5.19-16.88,9.43-16.21,14,.61,4.11,15.3,3.58,16.21,8.38.83,4.43-11,8.53-10.06,12.86S103,201.74,104,206.15c1.21,5.18-15.56,12.62-14.53,15.08s18-4.27,20.67,0-10.41,16-8.38,18.44c1.87,2.21,13.73-6.79,16.76-3.91,3.29,3.13-7.19,17-3.91,20.12s15.65-7.85,19.56-4.47c3.73,3.22-4.24,16-.52,18.7,2,1.44,6.35-.68,8.72-2.55,3.77-3,4.65-6.84,5.21-6.65.8.26-1.66,8-3,17.56-.88,6.2-1.75,12.28-.88,19.88,1,8.51,3.17,10.51,3.35,19a52,52,0,0,1-1.12,11.74c-4,22.07,18.17,70.31,23.74,68.64,2.37-.71,2.2-10.61,3.08-10.53.38,0,.44,1.79,2.11,4.66l0,0c3.81,6.5,8.49,8.7,8.49,8.7,2.85,1.34,4.07.65,5.85,2.41a6.87,6.87,0,0,1,1.9,3.44,7.4,7.4,0,0,1-1.6,5.89c.21-.79.31-1.22.33-1.34-.26.71-4.44,16.09-4.8,22a61.63,61.63,0,0,0,.56,12.29c.85,6.78,1.28,10.18,3.35,14,3.35,6.14,6.43,5,10.06,11.18,3.73,6.42,1.25,9,5,13.41,4.18,4.83,8.31,2.87,10.61,7.26,1.76,3.36-.21,5.34,1.53,12.7.66,2.82,1.44,6.11,2.94,6.3,2.8.35,5.67-10.43,7.27-10.06,1.9.44-.77,16.1,1.67,16.77,1.74.47,4.27-7.11,6.71-6.71,3.36.56,2.48,15.72,5.59,16.21,2.64.41,5.15-10.32,8.38-10.06,4.11.33,4.74,18.13,8.94,18.44,2.84.2,4.27-7.83,7.82-7.83,4.26,0,5.31,11.57,10.62,12.3,4.83.66,7.63-8.44,12.29-7.83,5.65.75,5.89,14.71,10.62,15.09,3.74.3,8.55-8.05,10.06-15.64,1.39-7.07-.4-11.86,1.67-12.86,3-1.45,8.2,8,12.29,6.71,5.34-1.64,3.59-19.86,6.15-20.12,2-.19,4.07,10.28,5.59,10.06,1.94-.28,1-17.78,2.23-17.88.84-.07,1.16,7.84,3.92,8.38,2,.4,3.08-3.69,7.82-7.82,6.26-5.45,10.6-3.68,12.85-7.82,3-5.46-1.73-13.78-1.12-14,.36-.12,1.07,3.06,4,5.14a7.34,7.34,0,0,0,4.38,1.56c3.89-.26,6.72-6.07,7.83-10.06,2.49-9-1.75-16,.56-17.32,2-1.18,5.38,4.28,8.38,3.35,5.9-1.82,3.47-26.25,3.35-27.38-1.49-14.2-7-22.84-2.79-26.82,1.93-1.82,4.13-1.07,7.79-4.41,2.46-2.25,3-4,5.62-5.09,2.43-1,4.17.11,5.58-.55,6.19-2.9,7.7-11.58,9.5-19,5.75-23.6,11.34-21.53,13.41-39.12,1.09-9.21-.42-10,1.12-23.47,1.35-11.82,2.69-12.74,2.8-20.11a79.74,79.74,0,0,0-2.65-20.57,4.38,4.38,0,0,0,.41.45c3.37,3.31,10.74,2.87,12.29,0,.9-1.65-.77-3-1.67-7.82-.55-2.93-1.51-8.15.56-10.06,3.79-3.48,15.43,6.28,18.44,3.36s-6.13-14.13-2.8-17.89c3.12-3.51,14,3,16.21,0s-8.14-11.8-5.59-16.76c2.4-4.68,14.15-1.83,15.09-5,1-3.53-12.69-9.25-11.74-12.29,1.06-3.38,19.17-.22,19.56-2.24.16-.81-2.8-1.47-6.15-3.91-5-3.62-10-10.59-8.38-14.53,2.26-5.51,16.62-2.79,17.32-6.14.81-3.85-17.84-8.88-17.32-14.53.46-5,15.71-6.31,15.65-10.06-.08-4.12-18.62-5.2-19-10.06s18-10.05,17.32-12.29c-.41-1.41-7.75.6-8.94-1.68-1.4-2.69,6.89-9.27,14-15.64,16.67-15,28.33-30.26,27.38-31.29-.7-.76-8.22,6.21-22.91,14.53-.76.42-15.72,8.81-16.76,7.26s14.25-9.3,24.74-27.37c3.39-5.85,5.38-11.22,8.51-19.68a199.32,199.32,0,0,0,7.13-23.82c.7-3,1.31-6.35,2.55-13.08C526.78,12.43,526.8,11.29,526.41,11.14ZM286.66,401.85c-42.51,0-77-18.49-77-41.29s34.46-41.29,77-41.29,77,18.48,77,41.29S329.17,401.85,286.66,401.85Z" transform="translate(-17.75 -10.62)"/><path class="cls-2" d="M287.74,319.29c-24.85,0-45,18.48-45,41.27s20.15,41.26,45,41.26,45-18.47,45-41.26S312.59,319.29,287.74,319.29Zm0,72.81c-19,0-34.39-14.12-34.39-31.54S268.75,329,287.74,329s34.38,14.12,34.38,31.54S306.73,392.1,287.74,392.1Z" transform="translate(-17.75 -10.62)"/><path class="cls-3" d="M526.41,11.14c-1.15-.45-4.84,8-10.62,17.32-4.81,7.73-9.07,12.6-16.2,20.67-17.46,19.76-39.33,39.94-40.79,38.56-1.05-1,14.15-14.33,19-32.41.85-3.19,1.79-8,3.41-16.41,2-10.54,2-11.75,1.45-12-1.9-.87-7.32,12.07-20.51,26.73a142.48,142.48,0,0,1-21.23,19c-7.52,5.51-11.9,8.9-19,11.74C415,87.09,413.83,86.09,408,89.2c-6.8,3.66-9.13,7.17-14.08,6.75-2.24-.18-4.23-1.11-7.55-2.64a46.31,46.31,0,0,1-6.95-4c-4.77-3.24-12.39-4.71-27.38-8.38-11.74-2.87-20.59-4.22-29.61-5.59-10.56-1.6-17-2.57-25.95-3.07-9.29-.52-15.75-.22-28.36.36-15.46.72-23.19,1.07-32.36,2.55-10.45,1.68-20.54,3.3-31.63,8-14.17,6-21.25,9-21.81,9.45a8.58,8.58,0,0,1-5.1,2.18c-3.65.12-6.41-2.83-8-4.36C164.64,86,158.2,84,152.72,80.64c-14.5-8.84-16.44-7.41-26.95-14.19a92.63,92.63,0,0,1-18.44-15.08c-14-15.06-19-31.77-20.12-31.29-.57.24.82,4.65,2.24,9.5,5,17.08,4.25,19.49,6.7,26.82,6.4,19.14,20.43,29.95,19.56,30.73-.48.43-4.24-3.37-10.62-8.94C93.41,68,90.52,67.18,82.18,59.75A128.37,128.37,0,0,1,64.86,41.31C53.07,25.77,49,11.74,47.54,12.25c-.79.29.27,4.63,2.23,14,5.26,25.05,4.8,28.12,8.39,36.32A79.57,79.57,0,0,0,68.77,79.86c13.73,18.06,28,24.71,26.82,26.83-.93,1.65-10.38-1.16-17.88-5.59-3.63-2.15-6.94-5-13.41-10.62C55.2,82.58,53.08,80,52.57,80.42c-1.15.9,5.93,16.84,20.11,30.18,9.69,9.11,19.77,14.25,18.44,18.44-1,3.17-7.67,2.9-7.82,5-.27,3.79,20.8,6.81,20.68,10.61s-21.72,5.15-21.8,8.94c-.07,3.31,16.31,4.53,16.77,9.5.48,5.19-16.88,9.43-16.21,14,.61,4.11,15.3,3.58,16.21,8.38.83,4.43-11,8.53-10.06,12.86S103,201.74,104,206.15c1.21,5.18-15.56,12.62-14.53,15.08s18-4.27,20.67,0-10.41,16-8.38,18.44c1.87,2.21,13.73-6.79,16.76-3.91,3.29,3.13-7.19,17-3.91,20.12s15.65-7.85,19.56-4.47c3.73,3.22-4.24,16-.52,18.7,2,1.44,6.35-.68,8.72-2.55,3.77-3,4.65-6.84,5.21-6.65.8.26-1.66,8-3,17.56-.88,6.2-1.75,12.28-.88,19.88,1,8.51,3.17,10.51,3.35,19a52,52,0,0,1-1.12,11.74c-4,22.07,18.17,70.31,23.74,68.64,2.37-.71,2.2-10.61,3.08-10.53.38,0,.44,1.79,2.11,4.66l0,0c3.81,6.5,8.49,8.7,8.49,8.7,2.85,1.34,4.07.65,5.85,2.41a6.87,6.87,0,0,1,1.9,3.44,7.4,7.4,0,0,1-1.6,5.89c.21-.79.31-1.22.33-1.34-.26.71-4.44,16.09-4.8,22a61.63,61.63,0,0,0,.56,12.29c.85,6.78,1.28,10.18,3.35,14,3.35,6.14,6.43,5,10.06,11.18,3.73,6.42,1.25,9,5,13.41,4.18,4.83,8.31,2.87,10.61,7.26,1.76,3.36-.21,5.34,1.53,12.7.66,2.82,1.44,6.11,2.94,6.3,2.8.35,5.67-10.43,7.27-10.06,1.9.44-.77,16.1,1.67,16.77,1.74.47,4.27-7.11,6.71-6.71,3.36.56,2.48,15.72,5.59,16.21,2.64.41,5.15-10.32,8.38-10.06,4.11.33,4.74,18.13,8.94,18.44,2.84.2,4.27-7.83,7.82-7.83,4.26,0,5.31,11.57,10.62,12.3,4.83.66,7.63-8.44,12.29-7.83,5.65.75,5.89,14.71,10.62,15.09,3.74.3,8.55-8.05,10.06-15.64,1.39-7.07-.4-11.86,1.67-12.86,3-1.45,8.2,8,12.29,6.71,5.34-1.64,3.59-19.86,6.15-20.12,2-.19,4.07,10.28,5.59,10.06,1.94-.28,1-17.78,2.23-17.88.84-.07,1.16,7.84,3.92,8.38,2,.4,3.08-3.69,7.82-7.82,6.26-5.45,10.6-3.68,12.85-7.82,3-5.46-1.73-13.78-1.12-14,.36-.12,1.07,3.06,4,5.14a7.34,7.34,0,0,0,4.38,1.56c3.89-.26,6.72-6.07,7.83-10.06,2.49-9-1.75-16,.56-17.32,2-1.18,5.38,4.28,8.38,3.35,5.9-1.82,3.47-26.25,3.35-27.38-1.49-14.2-7-22.84-2.79-26.82,1.93-1.82,4.13-1.07,7.79-4.41,2.46-2.25,3-4,5.62-5.09,2.43-1,4.17.11,5.58-.55,6.19-2.9,7.7-11.58,9.5-19,5.75-23.6,11.34-21.53,13.41-39.12,1.09-9.21-.42-10,1.12-23.47,1.35-11.82,2.69-12.74,2.8-20.11a79.74,79.74,0,0,0-2.65-20.57,4.38,4.38,0,0,0,.41.45c3.37,3.31,10.74,2.87,12.29,0,.9-1.65-.77-3-1.67-7.82-.55-2.93-1.51-8.15.56-10.06,3.79-3.48,15.43,6.28,18.44,3.36s-6.13-14.13-2.8-17.89c3.12-3.51,14,3,16.21,0s-8.14-11.8-5.59-16.76c2.4-4.68,14.15-1.83,15.09-5,1-3.53-12.69-9.25-11.74-12.29,1.06-3.38,19.17-.22,19.56-2.24.16-.81-2.8-1.47-6.15-3.91-5-3.62-10-10.59-8.38-14.53,2.26-5.51,16.62-2.79,17.32-6.14.81-3.85-17.84-8.88-17.32-14.53.46-5,15.71-6.31,15.65-10.06-.08-4.12-18.62-5.2-19-10.06s18-10.05,17.32-12.29c-.41-1.41-7.75.6-8.94-1.68-1.4-2.69,6.89-9.27,14-15.64,16.67-15,28.33-30.26,27.38-31.29-.7-.76-8.22,6.21-22.91,14.53-.76.42-15.72,8.81-16.76,7.26s14.25-9.3,24.74-27.37c3.39-5.85,5.38-11.22,8.51-19.68a199.32,199.32,0,0,0,7.13-23.82c.7-3,1.31-6.35,2.55-13.08C526.78,12.43,526.8,11.29,526.41,11.14ZM286.66,401.85c-42.51,0-77-18.49-77-41.29s34.46-41.29,77-41.29,77,18.48,77,41.29S329.17,401.85,286.66,401.85Z" transform="translate(-17.75 -10.62)"/><path class="cls-3" d="M287.74,319.29c-24.85,0-45,18.48-45,41.27s20.15,41.26,45,41.26,45-18.47,45-41.26S312.59,319.29,287.74,319.29Zm0,72.81c-19,0-34.39-14.12-34.39-31.54S268.75,329,287.74,329s34.38,14.12,34.38,31.54S306.73,392.1,287.74,392.1Z" transform="translate(-17.75 -10.62)"/><ellipse class="cls-2" cx="257.05" cy="347.44" rx="92.58" ry="61.06"/></g><g id="features"><ellipse class="cls-4" cx="198.86" cy="193.49" rx="44.99" ry="41.27"/><ellipse class="cls-4" cx="339.76" cy="193.49" rx="44.99" ry="41.27"/><path class="cls-4" d="M287.61,237l-4.39-5.46a8.53,8.53,0,0,0-6.91-2c-2,.38-3.28,1.6-4.81,3.12a19.64,19.64,0,0,0-4.64,7.27,24.92,24.92,0,0,0-1.54,8,33.88,33.88,0,0,0,.9,7.9c.47,2.45,1,4.47,1.41,5.91a46,46,0,0,0,3.32,8.51,55.49,55.49,0,0,0,4.34,7c1.83,2.68,3.68,5.09,5.49,7.27l8.49,9.2q5-6.74,10-13.46a52.8,52.8,0,0,0,6.57-13.09,51.23,51.23,0,0,0,2.7-15.63,32.2,32.2,0,0,0-.87-11.56,18.14,18.14,0,0,0-3.06-5.11c-1.56-1.82-3.77-4.46-7.27-4.78a9.41,9.41,0,0,0-5.8,1.45Z" transform="translate(-17.75 -10.62)"/></g><g id="Layer_9" data-name="Layer 9"><ellipse class="cls-5" cx="198.86" cy="193.49" rx="34.39" ry="31.54"/><ellipse class="cls-5" cx="339.86" cy="193.49" rx="34.39" ry="31.54"/></g><g id="Layer_8" data-name="Layer 8"><path class="cls-6" d="M362.93,144.72c4.92,4.3-14.12,41.68-27.75,39.8a9.84,9.84,0,0,1-7.62-7C323.91,163.53,358.05,140.45,362.93,144.72Z" transform="translate(-17.75 -10.62)"/><path class="cls-6" d="M210.57,144.72c-4.92,4.3,14.12,41.68,27.75,39.8a9.84,9.84,0,0,0,7.62-7C249.59,163.53,215.45,140.45,210.57,144.72Z" transform="translate(-17.75 -10.62)"/></g><g id="lower_feat" data-name="lower feat"><path class="cls-7" d="M316.18,216.59c1.12.73,6.95-9.4,22.81-23.15a161.29,161.29,0,0,1,18-13.61,166.33,166.33,0,0,1,21.45-11.58c16.38-7.45,19.71-6.21,34.72-12.93a137.68,137.68,0,0,0,23.49-12.94c12.72-8.84,10.83-11.15,28.94-26.55,9.55-8.13,14.67-11.38,25.19-21.45,1.14-1.09,11.79-11.28,11.23-11.91-.09-.1-.43.06-.65.17-3.67,1.9-22.75,15.82-21.82,16.85s23.73-11.58,24.86-27.58c.28-4-1-5.62,0-10.89,1.12-5.88,3.87-10,9.19-17.7,5.42-7.88,7-8.55,8.85-13.28,2.54-6.43,2.84-13.28,1.7-13.62-1.45-.43-4.11,10-11.91,21.79-3.69,5.55-6.72,8.7-18,19.74-20.37,19.87-30.66,29.88-36.08,33.37-9.91,6.38-8.93,3.59-27.92,14.29-16.65,9.4-16.81,11.21-28.59,17-16.5,8.15-20.16,6.56-30,13.27-8.12,5.56-12.94,11.67-20.09,21.79C333.09,183.86,314.19,215.3,316.18,216.59Z" transform="translate(-17.75 -10.62)"/><path class="cls-7" d="M259,213.53c-1.12.84-6-5.78-23.36-20.09a194.53,194.53,0,0,0-18-13.61,166.33,166.33,0,0,0-21.45-11.58c-16.38-7.45-19.7-6.21-34.72-12.93A137.68,137.68,0,0,1,138,142.38c-12.71-8.84-10.82-11.15-28.94-26.55-9.55-8.13-14.67-11.38-25.19-21.45C82.68,93.29,72,83.1,72.59,82.47c.09-.1.43.06.65.17C76.91,84.54,96,98.46,95.06,99.49S71.33,87.91,70.21,71.91c-.29-4,1-5.62,0-10.89-1.12-5.88-3.88-10-9.2-17.7C55.6,35.44,54,34.77,52.16,30c-2.54-6.43-2.84-13.28-1.7-13.62,1.45-.43,4.11,10,11.92,21.79,3.68,5.55,6.71,8.7,18,19.74,20.37,19.87,30.66,29.88,36.08,33.37,9.91,6.38,8.93,3.59,27.92,14.29,16.65,9.4,16.81,11.21,28.59,17,16.5,8.15,20.16,6.56,30,13.27,8.08,5.54,12.63,11.44,20.09,21.79C232.05,170.19,261.78,211.44,259,213.53Z" transform="translate(-17.75 -10.62)"/></g><g id="upper_feat" data-name="upper feat"><path class="cls-7" d="M325.77,175.26c.78.51,4.82-6.52,15.81-16a112,112,0,0,1,12.5-9.44,117.29,117.29,0,0,1,14.86-8c11.35-5.16,13.66-4.3,24.06-9a95,95,0,0,0,16.28-9c8.81-6.12,7.5-7.72,20.05-18.4,6.63-5.63,10.17-7.88,17.46-14.86.79-.75,8.17-7.82,7.78-8.25-.06-.07-.29,0-.45.12-2.54,1.31-15.77,11-15.11,11.67s16.44-8,17.22-19.11c.19-2.8-.7-3.9,0-7.55.77-4.07,2.68-6.91,6.37-12.26s4.84-5.93,6.13-9.2c1.76-4.46,2-9.21,1.18-9.44-1-.3-2.85,6.94-8.26,15.1-2.55,3.84-4.65,6-12.5,13.68C435,79.1,427.9,86,424.14,88.45c-6.86,4.42-6.18,2.49-19.34,9.91-11.54,6.5-11.65,7.76-19.82,11.79-11.43,5.65-14,4.55-20.76,9.2-5.62,3.86-9,8.09-13.92,15.1C337.49,152.58,324.39,174.36,325.77,175.26Z" transform="translate(-17.75 -10.62)"/><path class="cls-7" d="M248.13,175.26c-.78.51-4.82-6.52-15.81-16a112,112,0,0,0-12.5-9.44,118.07,118.07,0,0,0-14.86-8c-11.36-5.16-13.66-4.3-24.07-9a95.36,95.36,0,0,1-16.27-9c-8.82-6.12-7.51-7.72-20.06-18.4-6.62-5.63-10.16-7.88-17.45-14.86-.79-.75-8.17-7.82-7.79-8.25.06-.07.3,0,.46.12,2.53,1.31,15.76,11,15.11,11.67s-16.44-8-17.22-19.11c-.2-2.8.7-3.9,0-7.55-.78-4.07-2.69-6.91-6.37-12.26s-4.84-5.93-6.13-9.2c-1.76-4.46-2-9.21-1.18-9.44,1-.3,2.85,6.94,8.25,15.1,2.55,3.84,4.66,6,12.51,13.68C138.86,79.1,146,86,149.75,88.45c6.87,4.42,6.19,2.49,19.35,9.91,11.54,6.5,11.65,7.76,19.81,11.79,11.44,5.65,14,4.55,20.76,9.2,5.63,3.86,9,8.09,13.92,15.1C236.41,152.58,249.5,174.36,248.13,175.26Z" transform="translate(-17.75 -10.62)"/></g><g id="thingy"><path class="cls-7" d="M266.66,175c1.43-.79-1.42-7.9-.16-8.47.61-.28,1.6,1.28,4.42,3.75s4.89,4.26,6.47,3.74c1-.34,1.85-1.42,3.41-3.74,1.83-2.74,2.18-4.16,2.7-4.09,1.27.16.53,8.89,2.06,9.19s4.27-9.2,6.45-8.85c1.24.2,1,3.37,4.11,6.81,1.19,1.32,1.89,2.09,2.86,2.11,3.24.06,4.76-8.43,7-8.24s2.75,8.88,4.42,8.85c.86,0,1-2.21,2.39-4.76,2-3.76,6.34-8.17,10.21-7.83,3.55.31,5.66,4.52,8.85,10.89,3.86,7.7,5.79,11.55,5.11,15.66-.86,5.18-4.27,5.6-14.64,18.72-3.15,4-2.69,3.77-5.45,7.15-8.07,9.91-12.11,14.87-16.44,14.62-6-.34-7.14-9.92-12.88-9.93s-7.93,9.6-12.91,8.93c-2.75-.37-3.12-3.42-9.51-10.21-1.62-1.72-3.12-3.08-6.13-5.79-16.39-14.79-21.08-14.76-22.47-20.43-1.9-7.75,5-15.57,11.58-23.15,2-2.32,3.5-3.55,5.44-3.74C259.7,165.61,264.89,176,266.66,175Z" transform="translate(-17.75 -10.62)"/></g></svg>